<svg width="74" height="88" viewBox="0 0 74 88" fill="none" xmlns="http://www.w3.org/2000/svg">
<path d="M27.389 8.57447C27.389 13.31 23.5008 17.1489 18.7045 17.1489C13.9082 17.1489 10.02 13.31 10.02 8.57447C10.02 3.83892 13.9082 0 18.7045 0C23.5008 0 27.389 3.83892 27.389 8.57447Z" fill="white"/>
<path d="M24.7169 21.1141C44.7007 21.4659 60.791 37.5683 60.791 57.383C60.791 58.9471 60.6906 60.4881 60.4961 62H45.5957C45.9213 60.5118 46.0941 58.9673 46.0941 57.383C46.0941 45.5826 36.5831 35.976 24.7169 35.6273V62H10.02V21.1064H24.7169V21.1141Z" fill="white"/>
<path d="M1.95303e-05 83L6.34002 69H8.32002L14.68 83H12.58L6.92002 70.12H7.72002L2.06002 83H1.95303e-05ZM2.70002 79.5L3.24002 77.9H11.12L11.7 79.5H2.70002ZM18.7216 83L14.0816 72.4H16.0816L20.2016 82H19.2416L23.4416 72.4H25.3216L20.6816 83H18.7216ZM31.5405 83.12C30.4072 83.12 29.4072 82.8867 28.5405 82.42C27.6872 81.9533 27.0205 81.3133 26.5405 80.5C26.0738 79.6867 25.8405 78.7533 25.8405 77.7C25.8405 76.6467 26.0672 75.7133 26.5205 74.9C26.9872 74.0867 27.6205 73.4533 28.4205 73C29.2338 72.5333 30.1472 72.3 31.1605 72.3C32.1872 72.3 33.0938 72.5267 33.8805 72.98C34.6672 73.4333 35.2805 74.0733 35.7205 74.9C36.1738 75.7133 36.4005 76.6667 36.4005 77.76C36.4005 77.84 36.3938 77.9333 36.3805 78.04C36.3805 78.1467 36.3738 78.2467 36.3605 78.34H27.3405V76.96H35.3605L34.5805 77.44C34.5938 76.76 34.4538 76.1533 34.1605 75.62C33.8672 75.0867 33.4605 74.6733 32.9405 74.38C32.4338 74.0733 31.8405 73.92 31.1605 73.92C30.4938 73.92 29.9005 74.0733 29.3805 74.38C28.8605 74.6733 28.4538 75.0933 28.1605 75.64C27.8672 76.1733 27.7205 76.7867 27.7205 77.48V77.8C27.7205 78.5067 27.8805 79.14 28.2005 79.7C28.5338 80.2467 28.9938 80.6733 29.5805 80.98C30.1672 81.2867 30.8405 81.44 31.6005 81.44C32.2272 81.44 32.7938 81.3333 33.3005 81.12C33.8205 80.9067 34.2738 80.5867 34.6605 80.16L35.7205 81.4C35.2405 81.96 34.6405 82.3867 33.9205 82.68C33.2138 82.9733 32.4205 83.12 31.5405 83.12ZM44.7266 72.3C45.5932 72.3 46.3532 72.4667 47.0066 72.8C47.6732 73.1333 48.1932 73.64 48.5666 74.32C48.9399 75 49.1266 75.86 49.1266 76.9V83H47.2066V77.12C47.2066 76.0933 46.9532 75.32 46.4466 74.8C45.9532 74.28 45.2532 74.02 44.3466 74.02C43.6666 74.02 43.0732 74.1533 42.5666 74.42C42.0599 74.6867 41.6666 75.08 41.3866 75.6C41.1199 76.12 40.9866 76.7667 40.9866 77.54V83H39.0666V72.4H40.9066V75.26L40.6066 74.5C40.9532 73.8067 41.4866 73.2667 42.2066 72.88C42.9266 72.4933 43.7666 72.3 44.7266 72.3ZM55.7199 83.12C54.8399 83.12 53.9999 83 53.1999 82.76C52.4132 82.52 51.7932 82.2267 51.3399 81.88L52.1399 80.36C52.5932 80.6667 53.1532 80.9267 53.8199 81.14C54.4865 81.3533 55.1665 81.46 55.8599 81.46C56.7532 81.46 57.3932 81.3333 57.7799 81.08C58.1799 80.8267 58.3799 80.4733 58.3799 80.02C58.3799 79.6867 58.2599 79.4267 58.0199 79.24C57.7799 79.0533 57.4599 78.9133 57.0599 78.82C56.6732 78.7267 56.2399 78.6467 55.7599 78.58C55.2799 78.5 54.7999 78.4067 54.3199 78.3C53.8399 78.18 53.3999 78.02 52.9999 77.82C52.5999 77.6067 52.2799 77.32 52.0399 76.96C51.7999 76.5867 51.6799 76.0933 51.6799 75.48C51.6799 74.84 51.8599 74.28 52.2199 73.8C52.5799 73.32 53.0865 72.9533 53.7399 72.7C54.4065 72.4333 55.1932 72.3 56.0999 72.3C56.7932 72.3 57.4932 72.3867 58.1999 72.56C58.9199 72.72 59.5065 72.9533 59.9599 73.26L59.1399 74.78C58.6599 74.46 58.1599 74.24 57.6399 74.12C57.1199 74 56.5999 73.94 56.0799 73.94C55.2399 73.94 54.6132 74.08 54.1999 74.36C53.7865 74.6267 53.5799 74.9733 53.5799 75.4C53.5799 75.76 53.6999 76.04 53.9399 76.24C54.1932 76.4267 54.5132 76.5733 54.8999 76.68C55.2999 76.7867 55.7399 76.88 56.2199 76.96C56.6999 77.0267 57.1799 77.12 57.6599 77.24C58.1399 77.3467 58.5732 77.5 58.9599 77.7C59.3599 77.9 59.6799 78.18 59.9199 78.54C60.1732 78.9 60.2999 79.38 60.2999 79.98C60.2999 80.62 60.1132 81.1733 59.7399 81.64C59.3665 82.1067 58.8399 82.4733 58.1599 82.74C57.4799 82.9933 56.6665 83.12 55.7199 83.12ZM69.2794 83V80.76L69.1794 80.34V76.52C69.1794 75.7067 68.9394 75.08 68.4594 74.64C67.9927 74.1867 67.2861 73.96 66.3394 73.96C65.7127 73.96 65.0994 74.0667 64.4994 74.28C63.8994 74.48 63.3927 74.7533 62.9794 75.1L62.1794 73.66C62.7261 73.22 63.3794 72.8867 64.1394 72.66C64.9127 72.42 65.7194 72.3 66.5594 72.3C68.0127 72.3 69.1327 72.6533 69.9194 73.36C70.7061 74.0667 71.0994 75.1467 71.0994 76.6V83H69.2794ZM65.7994 83.12C65.0127 83.12 64.3194 82.9867 63.7194 82.72C63.1327 82.4533 62.6794 82.0867 62.3594 81.62C62.0394 81.14 61.8794 80.6 61.8794 80C61.8794 79.4267 62.0127 78.9067 62.2794 78.44C62.5594 77.9733 63.0061 77.6 63.6194 77.32C64.2461 77.04 65.0861 76.9 66.1394 76.9H69.4994V78.28H66.2194C65.2594 78.28 64.6127 78.44 64.2794 78.76C63.9461 79.08 63.7794 79.4667 63.7794 79.92C63.7794 80.44 63.9861 80.86 64.3994 81.18C64.8127 81.4867 65.3861 81.64 66.1194 81.64C66.8394 81.64 67.4661 81.48 67.9994 81.16C68.5461 80.84 68.9394 80.3733 69.1794 79.76L69.5594 81.08C69.3061 81.7067 68.8594 82.2067 68.2194 82.58C67.5794 82.94 66.7727 83.12 65.7994 83.12Z" fill="white"/>
</svg>
